# Blender v2.78 (sub 0) OBJ File: 'PaperAirPlane_ver3.blend'
# www.blender.org
mtllib PaperAirPlane.mtl
o Plane
v 1.020445 0.046540 -1.750544
v 0.020900 -0.045340 0.128674
v 0.036669 -0.052607 0.128674
v 0.000000 -0.570597 -0.000000
v -1.020445 0.046540 -1.750544
v -0.020900 -0.045340 0.128674
v 0.000000 0.042695 4.314988
v -0.036669 -0.052607 0.128674
vt 0.3026 0.3599
vt 0.0001 0.9999
vt 0.2858 0.0001
vt 0.0840 0.2970
vt 0.3926 0.3763
vt 0.0001 0.2631
vt 0.0645 0.2737
vt 0.0846 0.2711
vt 0.6020 0.2957
vt 0.8078 0.0001
vt 0.5171 0.9985
vt 0.8205 0.3589
vt 0.5171 0.2617
vt 0.9096 0.3749
vt 0.8445 0.3512
vt 0.8393 0.3435
vn -0.1315 0.9911 -0.0215
vn 0.1451 -0.9891 0.0238
vn -0.9991 0.0412 -0.0059
vn 0.9973 -0.0732 0.0104
vn 0.1072 0.2325 -0.9667
vn -0.4044 -0.8774 -0.2580
vn 0.1315 0.9911 -0.0215
vn -0.1451 -0.9891 0.0238
vn 0.9991 0.0412 -0.0059
vn -0.9973 -0.0732 0.0104
vn -0.1072 0.2325 -0.9667
vn 0.4044 -0.8774 -0.2580
usemtl None
s off
f 2/1/1 7/2/1 1/3/1
f 7/2/2 3/4/2 1/3/2
f 2/1/3 4/5/3 7/2/3
f 7/2/4 4/6/4 3/4/4
f 3/4/5 4/6/5 2/7/5
f 2/8/6 1/3/6 3/4/6
f 6/9/7 5/10/7 7/11/7
f 7/11/8 5/10/8 8/12/8
f 6/9/9 7/11/9 4/13/9
f 7/11/10 8/12/10 4/14/10
f 8/12/11 6/15/11 4/14/11
f 6/16/12 8/12/12 5/10/12
